<?xml version="1.0" encoding="UTF-8"?>
<!-- Generator: Adobe Illustrator 19.2.1, SVG Export Plug-In . SVG Version: 6.00 Build 0)  -->
<svg version="1.1" id="Layer_1" xmlns="http://www.w3.org/2000/svg" xmlns:xlink="http://www.w3.org/1999/xlink" x="0px" y="0px" viewBox="0 0 369 96" style="enable-background:new 0 0 369 96;" xml:space="preserve">
<style type="text/css">
	.st0{fill:#FFFFFF;}
</style>
<g>
	<g>
		<path class="st0" d="M193,64.3c-1,2.1-2.5,3.8-4.4,5.3c-1.9,1.5-4.2,2.6-6.8,3.4c-2.6,0.8-5.5,1.2-8.6,1.2c-3.2,0-6.1-0.4-8.8-1.2    s-5-2-7.1-3.5c-2-1.5-3.7-3.4-4.9-5.6c-1.3-2.2-2.1-4.7-2.4-7.4h8.7c0.5,3,2.2,5.4,4.8,7.2c2.7,1.8,5.9,2.6,9.7,2.6    c4,0,7.2-0.8,9.5-2.5c2.3-1.7,3.5-3.7,3.5-5.9c0-0.9-0.1-1.7-0.4-2.5c-0.3-0.8-0.9-1.5-1.9-2.2c-1-0.7-2.4-1.3-4.3-1.9    c-1.9-0.6-4.4-1.1-7.6-1.5c-3.2-0.5-6-1-8.5-1.7c-2.5-0.6-4.6-1.5-6.4-2.6c-1.8-1.1-3.1-2.5-4-4.2c-0.9-1.7-1.4-3.7-1.4-6.2    c0-1.9,0.4-3.7,1.2-5.5c0.8-1.8,2.1-3.5,3.7-4.9c1.7-1.5,3.8-2.7,6.4-3.6c2.5-0.9,5.6-1.4,9.1-1.4c6.1,0,11,1.4,14.7,4.3    c3.8,2.9,5.9,6.8,6.5,12h-8.7c-0.6-2.8-2-4.9-4.3-6.3c-2.2-1.4-5-2.1-8.2-2.1c-3.4,0-6.2,0.7-8.5,2.1c-2.2,1.4-3.3,3.1-3.3,5.2    c0,0.9,0.2,1.7,0.6,2.4c0.4,0.6,1.1,1.2,2.1,1.7s2.4,1,4,1.4s3.8,0.8,6.4,1.2c2.9,0.5,5.6,1,8.1,1.6c2.5,0.6,4.8,1.5,6.7,2.6    c1.9,1.1,3.4,2.6,4.5,4.5c1.1,1.8,1.7,4.2,1.7,7.2C194.6,59.9,194.1,62.3,193,64.3z"/>
		<path class="st0" d="M236,72.9V41.3c0-4-1.1-7.4-3.2-9.9c-2.2-2.6-5.3-3.9-9.5-3.9c-1.9,0-3.8,0.4-5.5,1.1    c-1.7,0.7-3.1,1.7-4.3,2.9c-1.2,1.2-2.2,2.6-2.8,4.3c-0.7,1.6-1,3.5-1,5.4v31.8h-8.6V21h8.3v5.6c1.8-2.2,3.9-3.8,6.5-5.1    c2.6-1.2,5.5-1.9,8.6-1.9s6,0.5,8.5,1.6c2.5,1.1,4.6,2.6,6.3,4.5c1.7,1.9,3,4.3,3.9,7c0.9,2.7,1.3,5.6,1.3,8.9v31.3L236,72.9    L236,72.9z"/>
		<path class="st0" d="M294.6,72.9v-8.4c-1.8,2.7-4.3,5-7.5,6.8c-3.2,1.9-6.7,2.8-10.5,2.8c-3.8,0-7.2-0.7-10.4-2.1    c-3.2-1.4-5.9-3.4-8.2-5.8c-2.3-2.5-4.2-5.4-5.5-8.7c-1.3-3.3-2-6.8-2-10.6c0-3.8,0.7-7.3,2-10.6c1.3-3.3,3.1-6.2,5.5-8.7    c2.3-2.5,5.1-4.4,8.2-5.8s6.6-2.2,10.4-2.2c3.8,0,7.3,0.9,10.5,2.8c3.2,1.9,5.6,4.2,7.5,6.8V21h8.3v52H294.6z M292.9,39.6    c-0.9-2.4-2.2-4.4-3.8-6.2c-1.6-1.8-3.5-3.1-5.6-4.2c-2.1-1-4.4-1.5-6.8-1.5c-2.4,0-4.7,0.5-6.8,1.5s-4,2.4-5.5,4.2    s-2.8,3.8-3.7,6.2c-0.9,2.4-1.4,4.8-1.4,7.5c0,2.6,0.5,5.1,1.4,7.4c0.9,2.3,2.1,4.3,3.7,6c1.5,1.7,3.4,3.1,5.5,4.1    c2.2,1,4.5,1.5,6.8,1.5c2.4,0,4.7-0.5,6.8-1.5c2.1-1,4-2.4,5.6-4.1c1.6-1.7,2.9-3.7,3.8-6c0.9-2.3,1.4-4.8,1.4-7.4    S293.8,42,292.9,39.6z"/>
		<path class="st0" d="M361.7,57.4c-1.3,3.3-3.1,6.2-5.4,8.7c-2.3,2.5-5,4.5-8.2,5.8s-6.6,2.1-10.3,2.1c-3.8,0-7.2-0.9-10.2-2.6    c-3.1-1.8-5.5-3.9-7.4-6.5v31h-8.6V21h8.3v8.3c1.8-2.6,4.3-4.9,7.5-6.8c3.2-1.9,6.7-2.8,10.5-2.8c3.7,0,7.2,0.7,10.3,2.1    c3.2,1.4,5.9,3.4,8.2,5.8s4.1,5.4,5.4,8.7c1.3,3.3,2,6.8,2,10.5C363.7,50.5,363,54.1,361.7,57.4z M353.8,39.3    c-0.9-2.4-2.1-4.4-3.7-6.2c-1.5-1.8-3.4-3.1-5.5-4.2c-2.1-1-4.4-1.5-6.8-1.5S333.1,28,331,29c-2.1,1-4,2.4-5.6,4.2    c-1.6,1.8-2.9,3.8-3.8,6.2c-0.9,2.4-1.4,4.8-1.4,7.5c0,2.7,0.5,5.2,1.4,7.6c0.9,2.4,2.2,4.4,3.8,6.2c1.6,1.8,3.5,3.2,5.6,4.2    c2.1,1,4.4,1.5,6.8,1.5s4.7-0.5,6.8-1.5c2.1-1,3.9-2.4,5.5-4.2c1.5-1.8,2.8-3.8,3.7-6.2c0.9-2.4,1.4-4.9,1.4-7.6    C355.1,44.2,354.7,41.7,353.8,39.3z"/>
	</g>
	<g>
		<path class="st0" d="M48.3,85.9c-2.2,0-4.4-0.8-6.1-2.5L7.9,49c-1.6-1.6-2.5-3.8-2.5-6.1s0.9-4.5,2.5-6.1L42.2,2.5    c3.4-3.4,8.8-3.4,12.2,0c3.4,3.4,3.4,8.8,0,12.2L26.1,43l28.3,28.3c3.4,3.4,3.4,8.8,0,12.2C52.7,85.1,50.5,85.9,48.3,85.9z"/>
		<path class="st0" d="M91.2,85.9c-2.2,0-4.4-0.8-6.1-2.5c-3.4-3.4-3.4-8.8,0-12.2L113.5,43L91.2,20.8L63,49    c-3.4,3.4-8.8,3.4-12.2,0c-3.4-3.4-3.4-8.8,0-12.2L85.2,2.5c3.4-3.4,8.8-3.4,12.2,0l34.4,34.4c3.4,3.4,3.4,8.8,0,12.2L97.3,83.4    C95.6,85.1,93.4,85.9,91.2,85.9z"/>
	</g>
</g>
</svg>